<svg xmlns="http://www.w3.org/2000/svg" version="1.1" xmlns:xlink="http://www.w3.org/1999/xlink" xmlns:svgjs="http://svgjs.dev/svgjs" viewBox="0 0 16.095577330632295 3.389397378462899"><g transform="matrix(1,0,0,1,4.143286822514558,1.1621986892314498)"><rect width="16.095577330632295" height="16.095577330632295" x="-4.143286822514557" y="-7.515288665316148" fill="#f9f9f9"></rect><g><path d=" M 0.384 0.5414999999999998 L 0.384 1.0649999999999997 L 0.0915 1.0649999999999997 L 0.0915 -2.220446049250313e-16 L 0.3195 -2.220446049250313e-16 L 0.747 0.5414999999999998 L 0.747 -2.220446049250313e-16 L 1.0395 -2.220446049250313e-16 L 1.0395 1.0649999999999997 L 0.807 1.0649999999999997 L 0.384 0.5414999999999998 M 1.47304248046875 -2.220446049250313e-16 L 1.80004248046875 -2.220446049250313e-16 L 2.13904248046875 1.0649999999999997 L 1.8420424804687499 1.0649999999999997 L 1.77754248046875 0.8564999999999997 L 1.49404248046875 0.8564999999999997 L 1.4310424804687498 1.0649999999999997 L 1.13254248046875 1.0649999999999997 L 1.47304248046875 -2.220446049250313e-16 M 1.73104248046875 0.6614999999999998 L 1.63654248046875 0.28649999999999975 L 1.5375424804687499 0.6614999999999998 L 1.73104248046875 0.6614999999999998 M 2.52453076171875 0.5414999999999998 L 2.52453076171875 1.0649999999999997 L 2.23203076171875 1.0649999999999997 L 2.23203076171875 -2.220446049250313e-16 L 2.46003076171875 -2.220446049250313e-16 L 2.88753076171875 0.5414999999999998 L 2.88753076171875 -2.220446049250313e-16 L 3.1800307617187498 -2.220446049250313e-16 L 3.1800307617187498 1.0649999999999997 L 2.94753076171875 1.0649999999999997 L 2.52453076171875 0.5414999999999998 M 3.3675732421874995 1.0649999999999997 L 3.3675732421874995 -2.220446049250313e-16 L 3.6600732421874995 -2.220446049250313e-16 L 3.6600732421874995 1.0649999999999997 L 3.3675732421874995 1.0649999999999997 M 3.8475981445312497 1.0649999999999997 L 3.8475981445312497 -2.220446049250313e-16 L 4.14009814453125 -2.220446049250313e-16 L 4.14009814453125 0.8099999999999997 L 4.62309814453125 0.8099999999999997 L 4.62309814453125 1.0649999999999997 L 3.8475981445312497 1.0649999999999997 M 4.975631103515625 -2.220446049250313e-16 L 5.302631103515625 -2.220446049250313e-16 L 5.641631103515625 1.0649999999999997 L 5.344631103515625 1.0649999999999997 L 5.280131103515625 0.8564999999999997 L 4.996631103515625 0.8564999999999997 L 4.933631103515625 1.0649999999999997 L 4.635131103515625 1.0649999999999997 L 4.975631103515625 -2.220446049250313e-16 M 5.233631103515625 0.6614999999999998 L 5.139131103515625 0.28649999999999975 L 5.040131103515625 0.6614999999999998 L 5.233631103515625 0.6614999999999998 M 5.853144287109375 -2.220446049250313e-16 L 6.061644287109376 0.7274999999999997 L 6.267144287109375 -2.220446049250313e-16 L 6.5746442871093755 -2.220446049250313e-16 L 6.207144287109375 1.0649999999999997 L 5.9161442871093755 1.0649999999999997 L 5.544144287109376 -2.220446049250313e-16 L 5.853144287109375 -2.220446049250313e-16 M 6.819164794921876 -2.220446049250313e-16 L 7.146164794921876 -2.220446049250313e-16 L 7.485164794921875 1.0649999999999997 L 7.188164794921875 1.0649999999999997 L 7.123664794921876 0.8564999999999997 L 6.840164794921876 0.8564999999999997 L 6.777164794921875 1.0649999999999997 L 6.478664794921875 1.0649999999999997 L 6.819164794921876 -2.220446049250313e-16 M 7.077164794921876 0.6614999999999998 L 6.982664794921876 0.28649999999999975 L 6.883664794921875 0.6614999999999998 L 7.077164794921876 0.6614999999999998 M 7.578153076171875 1.0649999999999997 L 7.578153076171875 -2.220446049250313e-16 L 8.067153076171875 -2.220446049250313e-16 Q 8.145153076171875 -2.220446049250313e-16 8.211153076171875 0.03149999999999964 Q 8.277153076171876 0.06299999999999972 8.325153076171876 0.11624999999999974 Q 8.373153076171876 0.16949999999999965 8.399403076171875 0.2354999999999997 Q 8.425653076171876 0.30149999999999966 8.425653076171876 0.36899999999999966 Q 8.425653076171876 0.43049999999999966 8.407653076171876 0.4874999999999997 Q 8.389653076171875 0.5444999999999998 8.355153076171876 0.5917499999999998 Q 8.320653076171876 0.6389999999999998 8.272653076171876 0.6734999999999998 L 8.497653076171876 1.0649999999999997 L 8.176653076171876 1.0649999999999997 L 7.989153076171876 0.7379999999999998 L 7.870653076171876 0.7379999999999998 L 7.870653076171876 1.0649999999999997 L 7.578153076171875 1.0649999999999997 M 7.870653076171876 0.48299999999999976 L 8.055153076171875 0.48299999999999976 Q 8.073153076171875 0.48299999999999976 8.089653076171876 0.4694999999999997 Q 8.106153076171875 0.45599999999999974 8.117403076171875 0.43049999999999966 Q 8.128653076171876 0.4049999999999997 8.128653076171876 0.36899999999999966 Q 8.128653076171876 0.3314999999999997 8.115903076171875 0.30674999999999975 Q 8.103153076171875 0.2819999999999997 8.084403076171876 0.26849999999999974 Q 8.065653076171875 0.25499999999999967 8.047653076171876 0.25499999999999967 L 7.870653076171876 0.25499999999999967 L 7.870653076171876 0.48299999999999976 M 8.841134765625 -2.220446049250313e-16 L 9.168134765625 -2.220446049250313e-16 L 9.507134765625 1.0649999999999997 L 9.210134765625 1.0649999999999997 L 9.145634765625 0.8564999999999997 L 8.862134765625 0.8564999999999997 L 8.799134765625 1.0649999999999997 L 8.500634765625 1.0649999999999997 L 8.841134765625 -2.220446049250313e-16 M 9.099134765625 0.6614999999999998 L 9.004634765625 0.28649999999999975 L 8.905634765624999 0.6614999999999998 L 9.099134765625 0.6614999999999998 M 9.571623046875 0.7769999999999997 Q 9.580623046874999 0.7829999999999997 9.628623046875 0.8024999999999998 Q 9.676623046875 0.8219999999999997 9.741123046875 0.8219999999999997 Q 9.787623046875 0.8219999999999997 9.816123046875 0.8062499999999997 Q 9.844623046875 0.7904999999999998 9.858873046875 0.7574999999999997 Q 9.873123046875 0.7244999999999997 9.878373046875 0.6712499999999997 Q 9.883623046875 0.6179999999999997 9.883623046875 0.5414999999999998 L 9.883623046875 -2.220446049250313e-16 L 10.176123046875 -2.220446049250313e-16 L 10.176123046875 0.5414999999999998 Q 10.176123046875 0.6629999999999997 10.161873046875 0.7619999999999998 Q 10.147623046875 0.8609999999999998 10.104123046875 0.9329999999999997 Q 10.060623046875 1.0049999999999997 9.973623046875 1.0432499999999998 Q 9.886623046875 1.0814999999999997 9.741123046875 1.0814999999999997 Q 9.672123046875 1.0814999999999997 9.615123046875 1.0649999999999997 Q 9.558123046875 1.0484999999999998 9.510123046875 1.0154999999999996 L 9.571623046875 0.7769999999999997 M 10.816601806640625 1.0739999999999996 Q 10.689101806640625 1.0739999999999996 10.597601806640625 1.0319999999999998 Q 10.506101806640626 0.9899999999999998 10.448351806640625 0.9164999999999998 Q 10.390601806640625 0.8429999999999997 10.363601806640625 0.7477499999999997 Q 10.336601806640624 0.6524999999999996 10.336601806640624 0.5474999999999998 L 10.336601806640624 -2.220446049250313e-16 L 10.629101806640625 -2.220446049250313e-16 L 10.629101806640625 0.5474999999999998 Q 10.629101806640625 0.5999999999999996 10.639601806640625 0.6479999999999997 Q 10.650101806640626 0.6959999999999997 10.672601806640625 0.7334999999999997 Q 10.695101806640626 0.7709999999999997 10.730351806640625 0.7927499999999997 Q 10.765601806640625 0.8144999999999998 10.816601806640625 0.8144999999999998 Q 10.869101806640625 0.8144999999999998 10.905101806640625 0.7927499999999997 Q 10.941101806640624 0.7709999999999997 10.962851806640625 0.7327499999999998 Q 10.984601806640626 0.6944999999999997 10.995101806640625 0.6464999999999997 Q 11.005601806640625 0.5984999999999997 11.005601806640625 0.5474999999999998 L 11.005601806640625 -2.220446049250313e-16 L 11.298101806640625 -2.220446049250313e-16 L 11.298101806640625 0.5474999999999998 Q 11.298101806640625 0.6584999999999996 11.268851806640626 0.7544999999999997 Q 11.239601806640625 0.8504999999999997 11.181101806640624 0.9224999999999997 Q 11.122601806640626 0.9944999999999997 11.031851806640626 1.0342499999999997 Q 10.941101806640624 1.0739999999999996 10.816601806640625 1.0739999999999996" fill="#343432" fill-rule="nonzero"></path></g><g></g><g clip-path="url(#SvgjsClipPath1003)"><g clip-path="url(#SvgjsClipPath1000d599f4c4-695c-4bb9-9f4b-f40140d4f1ad)"><path d=" M -0.40284842712943325 0.45300940127649036 C -0.44708228907985115 -0.16140972996163228 -0.9822041312117369 -0.6253258431001623 -1.5966232624498597 -0.5816314184906031 C -1.9504941580532038 -0.5562778634702416 -2.2746959999093157 -0.3615409834202308 -2.4640385065507395 -0.06053494722104491 C -2.4893920615711007 -0.019537709315779583 -2.4786033147539257 0.033866587429237316 -2.4386849515303775 0.060838454472175174 L -2.146849350125791 0.25989083324905615 C -2.126350731173158 0.27391620411138373 -2.100997176152797 0.27877114017911264 -2.0772619331550115 0.27337676677052514 C -2.0529872528163677 0.2679823933619375 -2.0324886338637347 0.2528781478178923 -2.019542137683125 0.23184009152440088 C -1.921364541646831 0.06677226522162161 -1.7482051552311704 -0.04003632826841208 -1.5561654618854535 -0.05406169913073977 C -1.2330424947110585 -0.07725750478766635 -0.9514562027827873 0.16710761062135016 -0.9282603971258614 0.49023057779574486 C -0.916932212967827 0.6466674066447843 -0.9676393230085498 0.7982492994260945 -1.0701324177717142 0.9169255144150207 C -1.1726255125348777 1.0356017294039468 -1.315576407862448 1.1068074583973027 -1.4720132367114873 1.1181356425553366 C -1.7045107306216112 1.134858200121958 -1.925140603032842 1.0124059237470204 -2.033567508545452 0.805801422198117 C -2.055684439520661 0.7637253096111339 -2.1074704242431017 0.7464633147036538 -2.150625411511802 0.7664224963154277 L -2.471051191981903 0.9153072023924446 C -2.493168122957112 0.9255565118687609 -2.5098906805237333 0.9444368187988174 -2.5179822406366146 0.9670931871148855 C -2.5260738007494963 0.990288992771812 -2.52445548872692 1.0151031104513142 -2.513127304568886 1.0366806040856646 C -2.3221664859048863 1.41590505470937 -1.9370082245317348 1.6494814233012112 -1.5184048480253405 1.6494814233012112 C -1.491972418323261 1.6494814233012112 -1.4650005512803235 1.6484025486194942 -1.4380286842373855 1.6467842365969179 C -1.1402592720833522 1.6257461803034259 -0.868922289631398 1.489807970407019 -0.6736459722405286 1.264323161928059 C -0.47783021750879984 1.0388383534490995 -0.38181037083594127 0.7507788134305239 -0.40284842712943325 0.45300940127649036 Z M -0.8085053074552171 1.146725821620851 C -0.9724942590762788 1.3360683282622738 -1.2006762542595335 1.4498896071834717 -1.4504357430771369 1.4682304767726695 C -1.797293953249317 1.4930445944521722 -2.1241929818097227 1.3258190187859578 -2.3081411150425586 1.0372200414265236 L -2.1484676621483665 0.9627776883880151 C -2.0060562041616556 1.1720793766412125 -1.768703774183803 1.2983077144021613 -1.5146287866393284 1.2983077144021613 C -1.496287917050131 1.2983077144021613 -1.4779470474609333 1.2977682770613024 -1.459606177871736 1.296149965038726 C -1.255159425686267 1.2815851568355403 -1.0690535430899963 1.188262496866975 -0.9347336452161659 1.033443980040512 C -0.8004137473423363 0.8786254632140494 -0.7346023917575675 0.6811913964597448 -0.7491671999607541 0.4767446442742761 C -0.7793756910488443 0.054904643722729296 -1.1467325201736576 -0.2633633873839367 -1.5685725207252041 -0.2331548962958464 C -1.7865052064321416 -0.21751121341094243 -1.9866364598907402 -0.10962374523919127 -2.119338045741994 0.06083845447217551 L -2.2628283784104233 -0.037339141564117884 C -2.100457738811938 -0.2498774538624678 -1.85231656201691 -0.3852762264180155 -1.5836767662692497 -0.404156533348072 C -1.067974668408279 -0.44083827252646735 -0.6180839261320767 -0.051364512426445574 -0.5814021869536807 0.4643375854345254 C -0.5636007547053423 0.7157153862747051 -0.6445163558341553 0.9573833149794274 -0.8085053074552171 1.146725821620851 Z" fill="#343432" transform="matrix(1,0,0,1,0,0)" fill-rule="nonzero"></path></g><g clip-path="url(#SvgjsClipPath1000d599f4c4-695c-4bb9-9f4b-f40140d4f1ad)"><path d=" M -1.7757164596149668 0.5700673042428409 L -1.5086949758898824 0.5700673042428409 C -1.4844202955512387 0.5700673042428409 -1.464461113939465 0.550108122631067 -1.464461113939465 0.5258334422924228 L -1.464461113939465 0.49886157524948505 C -1.464461113939465 0.47458689491084105 -1.4844202955512387 0.45462771329906737 -1.5086949758898824 0.45462771329906737 L -1.7676248995020856 0.45462771329906737 L -2.703009248551168 0.45462771329906737 L -2.627488020830943 0.5172024448386828 L -2.6911416270522754 0.5700673042428411 L -1.7757164596149668 0.5700673042428411 Z" fill="#343432" transform="matrix(1,0,0,1,0,0)" fill-rule="nonzero"></path></g><g clip-path="url(#SvgjsClipPath1000d599f4c4-695c-4bb9-9f4b-f40140d4f1ad)"><path d=" M -3.1189154383532687 0.5172024448386826 L -3.5655695565843186 0.8160507316744333 L -2.9872927271837324 0.8160507316744333 L -2.691141627052275 0.5700673042428409 L -2.627488020830943 0.5172024448386826 Z" fill="#aac527" transform="matrix(1,0,0,1,0,0)" fill-rule="nonzero"></path></g><g clip-path="url(#SvgjsClipPath1000d599f4c4-695c-4bb9-9f4b-f40140d4f1ad)"><path d=" M -1.5286541575016566 0.27931057751997124 C -1.640317687059419 0.27931057751997124 -1.73525865905056 0.35267405587676226 -1.7670854621612266 0.454088275958208 L -1.508155538549024 0.454088275958208 C -1.4838808582103797 0.454088275958208 -1.4639216765986056 0.4740474575699819 -1.4639216765986056 0.4983221379086259 L -1.4639216765986056 0.5252940049515636 C -1.4639216765986056 0.5495686852902079 -1.4838808582103797 0.5695278669019818 -1.508155538549024 0.5695278669019818 L -1.775177022274108 0.5695278669019818 C -1.7557572780031927 0.6887435192317669 -1.6527247458991703 0.7799084298368965 -1.5281147201607976 0.7799084298368965 C -1.390018760900956 0.7799084298368965 -1.277815794002335 0.6677054629382754 -1.277815794002335 0.5296095036784337 C -1.2783552313431943 0.39151354441859265 -1.3905581982418154 0.27931057751997124 -1.5286541575016566 0.27931057751997124 Z" fill="#d4d6c9" transform="matrix(1,0,0,1,0,0)" fill-rule="nonzero"></path></g><g clip-path="url(#SvgjsClipPath1000d599f4c4-695c-4bb9-9f4b-f40140d4f1ad)"><path d=" M -2.9872927271837324 0.218354158002932 L -3.5655695565843186 0.218354158002932 L -3.1189154383532687 0.5172024448386826 L -2.627488020830943 0.5172024448386826 L -2.703009248551168 0.45408827595820844 Z" fill="#d4d6c9" transform="matrix(1,0,0,1,0,0)" fill-rule="nonzero"></path></g></g></g><defs><clipPath id="SvgjsClipPath1003"><path d=" M -3.5655695565843186 -0.5844814233012113 h 3.1655695565843187 v 2.2339628466024224 h -3.1655695565843187 Z"></path></clipPath><clipPath id="SvgjsClipPath1000d599f4c4-695c-4bb9-9f4b-f40140d4f1ad"><path d=" M -3.5655695565843186 -0.5844814233012113 L -0.3999999999999999 -0.5844814233012113 L -0.3999999999999999 1.6494814233012112 L -3.5655695565843186 1.6494814233012112 Z"></path></clipPath></defs></svg>